<?xml version="1.0" encoding="UTF-8" standalone="no"?>
<!-- Created with Inkscape (http://www.inkscape.org/) -->

<svg
   xmlns:dc="http://purl.org/dc/elements/1.1/"
   xmlns:cc="http://creativecommons.org/ns#"
   xmlns:rdf="http://www.w3.org/1999/02/22-rdf-syntax-ns#"
   xmlns:svg="http://www.w3.org/2000/svg"
   xmlns="http://www.w3.org/2000/svg"
   xmlns:sodipodi="http://sodipodi.sourceforge.net/DTD/sodipodi-0.dtd"
   xmlns:inkscape="http://www.inkscape.org/namespaces/inkscape"
   width="156.30403mm"
   height="44.924133mm"
   viewBox="0 0 553.83318 159.18"
   id="svg2"
   version="1.1"
   inkscape:version="0.91 r13725"
   sodipodi:docname="asteroidDistribution.svg">
  <defs
     id="defs4" />
  <sodipodi:namedview
     id="base"
     pagecolor="#ffffff"
     bordercolor="#666666"
     borderopacity="1.0"
     inkscape:pageopacity="0.0"
     inkscape:pageshadow="2"
     inkscape:zoom="0.35"
     inkscape:cx="-1041.1668"
     inkscape:cy="544.8943"
     inkscape:document-units="px"
     inkscape:current-layer="layer1"
     showgrid="false"
     fit-margin-top="0"
     fit-margin-left="0"
     fit-margin-right="0"
     fit-margin-bottom="0"
     inkscape:window-width="3440"
     inkscape:window-height="1377"
     inkscape:window-x="-8"
     inkscape:window-y="-8"
     inkscape:window-maximized="1" />
  <metadata
     id="metadata7">
    <rdf:RDF>
      <cc:Work
         rdf:about="">
        <dc:format>image/svg+xml</dc:format>
        <dc:type
           rdf:resource="http://purl.org/dc/dcmitype/StillImage" />
        <dc:title></dc:title>
      </cc:Work>
    </rdf:RDF>
  </metadata>
  <g
     inkscape:label="Layer 1"
     inkscape:groupmode="layer"
     id="layer1"
     transform="translate(-757.59537,-918.0765)">
    <g
       transform="matrix(1.25,0,0,-1.25,674.512,1637.6665)"
       inkscape:label="asteroidDistribution"
       id="g3547">
      <g
         id="g3549">
        <path
           inkscape:connector-curvature="0"
           id="path3551"
           style="fill:none;stroke:#000000;stroke-width:0.40000001;stroke-linecap:butt;stroke-linejoin:round;stroke-miterlimit:10;stroke-dasharray:none;stroke-opacity:1"
           d="m 304,512 c 0,8.837 -7.163,16 -16,16 -8.837,0 -16,-7.163 -16,-16 0,-8.837 7.163,-16 16,-16 8.837,0 16,7.163 16,16" />
      </g>
      <g
         id="g3553">
        <path
           inkscape:connector-curvature="0"
           id="path3555"
           style="fill:none;stroke:#000000;stroke-width:0.40000001;stroke-linecap:butt;stroke-linejoin:round;stroke-miterlimit:10;stroke-dasharray:none;stroke-opacity:1"
           d="m 384,512 c 0,16 32,24 58.667,25.333 26.666,1.334 48,-4 58.666,-12 10.667,-8 10.667,-18.666 0,-26.666 -10.666,-8 -32,-13.334 -58.666,-12 C 416,488 384,496 384,512" />
      </g>
      <g
         id="g3557">
        <path
           inkscape:connector-curvature="0"
           id="path3559"
           style="fill:none;stroke:#a9a9a9;stroke-width:0.40000001;stroke-linecap:butt;stroke-linejoin:round;stroke-miterlimit:10;stroke-dasharray:none;stroke-opacity:1"
           d="m 384,512 c 0,15.204 -42.981,27.53 -96,27.53 -53.019,0 -96,-12.326 -96,-27.53 0,-15.204 42.981,-27.53 96,-27.53" />
      </g>
      <g
         id="g3561">
        <path
           inkscape:connector-curvature="0"
           id="path3563"
           style="fill:none;stroke:#a9a9a9;stroke-width:0.40000001;stroke-linecap:butt;stroke-linejoin:round;stroke-miterlimit:10;stroke-dasharray:none;stroke-opacity:1"
           d="m 509.333,512 c 0,35.054 -99.094,63.472 -221.333,63.472 -122.239,0 -221.3333,-28.418 -221.3333,-63.472 0,-35.054 99.0943,-63.472 221.3333,-63.472" />
      </g>
      <g
         id="g3565">
        <path
           inkscape:connector-curvature="0"
           id="path3567"
           style="fill:none;stroke:#a9a9a9;stroke-width:0.40000001;stroke-linecap:round;stroke-linejoin:round;stroke-miterlimit:10;stroke-dasharray:none;stroke-opacity:1"
           d="m 191.974,512.784 -0.003,0.039 -0.016,0.206 -0.02,0.206 -0.041,0.346 -0.04,0.267 -0.059,0.341 -0.065,0.313 -0.045,0.199 -0.068,0.273 -0.086,0.308 -0.082,0.269 -0.064,0.194 -0.05,0.145 -0.096,0.265 -0.018,0.048 -0.037,0.096 -0.019,0.047 -0.038,0.096 -0.044,0.107 -0.066,0.154 -0.021,0.047 -0.02,0.048 -0.021,0.047 -0.021,0.047 -0.065,0.141 -0.022,0.047 -0.022,0.047 -0.051,0.105 -0.023,0.047 -0.046,0.093 -0.024,0.046 -0.053,0.105 -0.024,0.046 -0.031,0.058 0,0.001 -0.013,0.025 -0.067,0.123 -0.105,0.19 -0.054,0.094 -0.035,0.061 -0.02,0.034 -0.036,0.06 -0.02,0.034 -0.056,0.094 -0.037,0.06 -0.058,0.094 -0.037,0.06 -0.021,0.033 -0.06,0.093 -0.06,0.093 -0.04,0.059 -0.021,0.033 -0.062,0.093 -0.018,0.026 -0.023,0.033 -0.04,0.059 -0.064,0.092 -0.042,0.059 -0.023,0.033 -0.023,0.032 -0.042,0.059 -0.043,0.059 -0.066,0.09 -0.044,0.059 -0.068,0.09 -0.044,0.059 -0.069,0.09 -0.046,0.058 -0.045,0.057 -0.071,0.09 -0.046,0.057 -0.047,0.058 -0.026,0.032 -0.047,0.057 -0.073,0.089 -0.048,0.057 -0.049,0.057 -0.075,0.088 -0.049,0.057 -0.077,0.087 -0.05,0.057 -0.1,0.113 -0.051,0.056 -0.028,0.031 -0.051,0.056 -0.052,0.056 -0.104,0.111 -0.053,0.056 -0.159,0.166 -0.084,0.086 -0.078,0.079 -0.055,0.055 -0.08,0.08 -0.055,0.055 -0.056,0.054 -0.056,0.055 -0.056,0.054 -0.057,0.054 -0.114,0.109 -0.115,0.107 -0.058,0.054 -0.059,0.054 -0.032,0.029 -0.059,0.054 -0.178,0.16 -0.04,0.035 -0.04,0.035 -0.02,0.018 -0.102,0.089 -0.082,0.071 -0.073,0.063 -0.052,0.044 -0.052,0.044 -0.105,0.088 -0.085,0.071 -0.053,0.043 -0.053,0.044 -0.086,0.07 -0.14,0.113 -0.086,0.069 -0.088,0.069 -0.055,0.044 -0.177,0.137 -0.178,0.137 -0.147,0.11 -0.091,0.068 -0.149,0.11 -0.185,0.135 -0.093,0.067 -0.129,0.091 -0.059,0.042 -0.094,0.066 -0.06,0.042 -0.06,0.042 -0.192,0.131 -0.036,0.025 -0.121,0.082 -0.122,0.082 -0.037,0.025 -0.061,0.04 -0.161,0.106 -0.162,0.105 -0.125,0.081 -0.063,0.041 -0.101,0.064 -0.063,0.04 -0.128,0.08 -0.231,0.143 -0.038,0.024 -0.13,0.079 -0.065,0.039 -0.039,0.024 -0.104,0.062 -0.171,0.102 -0.172,0.101 -0.133,0.078 -0.04,0.023 -0.067,0.039 -0.04,0.023 -0.134,0.077 -0.108,0.061 -0.149,0.084 -0.109,0.061 -0.109,0.061 -0.069,0.038 -0.041,0.022 -0.11,0.061 -0.07,0.038 -0.092,0.05 -0.079,0.042 -0.098,0.053 -0.057,0.031 -0.156,0.082 -0.099,0.052 -0.098,0.052 -0.041,0.021 -0.158,0.082 -0.041,0.021 -0.14,0.072 -0.16,0.082 -0.041,0.021 -0.06,0.03 -0.101,0.05 -0.101,0.051 -0.06,0.03 -0.144,0.071 -0.102,0.05 -0.103,0.05 -0.102,0.05 -0.103,0.05 -0.104,0.05 -0.061,0.029 -0.104,0.05 -0.104,0.049 -0.062,0.029 -0.105,0.049 -0.105,0.049 -0.105,0.049 -0.105,0.049 -0.169,0.077 -0.106,0.049 -0.107,0.048 -0.063,0.028 -0.087,0.04 -0.107,0.048 -0.108,0.047 -0.108,0.048 -0.152,0.067 -0.109,0.048 -0.064,0.028 -0.109,0.047 -0.109,0.047 -0.109,0.047 -0.09,0.038 -0.11,0.047 -0.11,0.046 -0.045,0.019 -0.111,0.046 -0.09,0.038 -0.111,0.046 -0.066,0.028 -0.157,0.064 -0.158,0.065 -0.046,0.018 -0.112,0.046 -0.046,0.018 -0.113,0.046 -0.066,0.026 -0.047,0.019 -0.046,0.018 -0.067,0.027 -0.067,0.026 -0.046,0.019 -0.093,0.036 -0.161,0.063 -0.067,0.027 -0.047,0.018 -0.068,0.026 -0.093,0.036 -0.068,0.026 -0.047,0.018 -0.047,0.019 -0.068,0.026 -0.048,0.017 -0.068,0.026 -0.047,0.018 -0.047,0.018 -0.069,0.026 -0.047,0.018 -0.164,0.061 -0.068,0.026 -0.048,0.018 -0.069,0.025 -0.095,0.035 -0.048,0.018 -0.042,0.016 0,0 -0.042,0.015 -0.044,0.016 -0.056,0.021 -0.045,0.016 -0.145,0.053 -0.056,0.02 -0.045,0.016 -0.101,0.036 -0.044,0.017 -0.012,0.004 -0.09,0.032 -0.044,0.016 -0.045,0.016 -0.012,0.004" />
      </g>
      <g
         id="g3569">
        <path
           inkscape:connector-curvature="0"
           id="path3571"
           style="fill:none;stroke:#a9a9a9;stroke-width:0.40000001;stroke-linecap:round;stroke-linejoin:round;stroke-miterlimit:10;stroke-dasharray:none;stroke-opacity:1"
           d="m 171.435,530.608 -0.045,0.015 -0.011,0.004 -0.046,0.016 -0.102,0.036 -0.069,0.024 -0.091,0.031 -0.057,0.019 -0.046,0.016 -0.057,0.02 -0.091,0.031 -0.046,0.015 -0.149,0.051 -0.058,0.019 -0.137,0.046 -0.104,0.035 -0.046,0.015 -0.104,0.035 -0.105,0.034 -0.092,0.031 -0.092,0.03 -0.105,0.034 -0.046,0.015 -0.093,0.03 -0.105,0.034 -0.059,0.019 -0.186,0.06 -0.047,0.015 -0.211,0.067 -0.094,0.03 -0.094,0.029 -0.106,0.033 -0.106,0.034 -0.189,0.058 -0.119,0.037 -0.141,0.043 -0.143,0.044 -0.059,0.018 -0.095,0.029 -0.203,0.061 -0.108,0.032 -0.095,0.028 -0.06,0.018 -0.096,0.028 -0.156,0.046 -0.156,0.046 -0.048,0.014 -0.061,0.018 -0.096,0.028 -0.06,0.017 -0.206,0.059 -0.205,0.059 -0.061,0.018 -0.097,0.027 -0.061,0.017 -0.097,0.028 -0.049,0.013 -0.11,0.031 -0.048,0.014 -0.159,0.044 -0.11,0.03 -0.098,0.027 -0.012,0.003 -0.098,0.027 -0.098,0.027 -0.123,0.034 -0.098,0.026 -0.049,0.013 -0.111,0.03 -0.049,0.014 -0.049,0.013 -0.062,0.016 -0.148,0.04 -0.111,0.029 -0.161,0.043 -0.099,0.026 -0.174,0.045 -0.049,0.013 -0.112,0.029 -0.1,0.026 -0.161,0.041 -0.113,0.029 -0.099,0.025 -0.1,0.026 -0.113,0.028 -0.1,0.025 -0.099,0.025 -0.113,0.028 -0.05,0.013 -0.114,0.028 -0.05,0.012 -0.1,0.025 -0.063,0.016 -0.1,0.024 -0.051,0.013 -0.05,0.012 -0.151,0.037 -0.063,0.015 -0.051,0.012 -0.164,0.04 -0.05,0.012 -0.101,0.024 -0.013,0.003 -0.152,0.036 -0.05,0.012 -0.115,0.027 -0.05,0.012 -0.102,0.024 -0.101,0.023 -0.064,0.015 -0.102,0.024 -0.114,0.026 -0.102,0.024 -0.013,0.003 -0.102,0.023 -0.102,0.024 -0.064,0.014 -0.166,0.038 -0.051,0.011 -0.064,0.015 -0.051,0.011 -0.052,0.012 -0.102,0.023 -0.115,0.026 -0.116,0.025 -0.102,0.023 -0.052,0.011 -0.064,0.014 -0.051,0.012 -0.103,0.022 -0.116,0.026 -0.116,0.025 -0.103,0.022 -0.103,0.022 -0.065,0.014 -0.103,0.022 -0.116,0.025 -0.117,0.025 -0.051,0.011 -0.117,0.024 -0.117,0.025 -0.103,0.021 -0.234,0.049 -0.169,0.035 -0.169,0.034 -0.169,0.035 -0.065,0.013 -0.104,0.021 -0.104,0.021 -0.118,0.023 -0.052,0.011 -0.117,0.023 -0.222,0.044 -0.223,0.043 -0.156,0.031 -0.118,0.023 -0.157,0.03 -0.066,0.013 -0.105,0.02 -0.209,0.039 -0.171,0.033 -0.21,0.039 -0.224,0.041 -0.105,0.02 -0.157,0.029 -0.172,0.031 -0.316,0.057 -0.158,0.028 -0.158,0.028 -0.15,0.026 -0.111,0.02 -0.103,0.018 -0.103,0.018 -0.206,0.036 -0.104,0.017 -0.103,0.018 -0.155,0.026 -0.104,0.018 -0.161,0.027 -0.051,0.009 -0.156,0.026 -0.109,0.018 -0.104,0.017 -0.207,0.034 -0.161,0.026 -0.104,0.017 -0.11,0.018 -0.103,0.017 -0.266,0.042 -0.104,0.016 -0.162,0.026 -0.26,0.041 -0.161,0.025 -0.053,0.008 -0.161,0.024 -0.157,0.024 -0.11,0.017 -0.214,0.032 -0.104,0.016 -0.162,0.024 -0.11,0.016 -0.157,0.023 -0.052,0.007 -0.168,0.025 -0.215,0.031 -0.313,0.044 -0.105,0.015 -0.215,0.03 -0.104,0.015 -0.215,0.029 -0.052,0.007 -0.215,0.03 -0.111,0.015 -0.209,0.028 -0.157,0.021 -0.104,0.013 -0.157,0.021 -0.216,0.028 -0.267,0.035 -0.268,0.034 -0.209,0.026 -0.215,0.027 -0.21,0.026 -0.104,0.012 -0.262,0.032 -0.163,0.02 -0.21,0.024 -0.267,0.032 -0.262,0.03 -0.262,0.03 -0.367,0.041 -0.366,0.04 -0.267,0.029 -0.32,0.034 -0.215,0.022 -0.366,0.038 -0.267,0.027 -0.314,0.031 -0.319,0.031 -0.476,0.046 -0.313,0.029 -0.26,0.023 -0.365,0.033 -0.11,0.009 -0.266,0.024 -0.266,0.022 -0.208,0.018 -0.37,0.03 -0.155,0.012 -0.162,0.013 -0.155,0.013 -0.214,0.016 -0.103,0.008 -0.156,0.012 -0.155,0.012 -0.265,0.019 -0.316,0.023 -0.206,0.014 -0.258,0.018 -0.161,0.011 -0.206,0.014 -0.109,0.007 -0.206,0.013 -0.102,0.007 -0.103,0.006 -0.206,0.013 -0.262,0.016 -0.154,0.01 -0.205,0.012 -0.256,0.014 -0.103,0.006 -0.204,0.012 -0.21,0.011 -0.204,0.011 -0.153,0.008 -0.254,0.013 -0.278,0.013 -0.222,0.011 -0.332,0.015 -0.277,0.012 -0.442,0.019 -0.386,0.015 -0.275,0.01 -0.33,0.012 -0.274,0.009 -0.164,0.006 -0.329,0.01 -0.273,0.008 -0.218,0.006 -0.273,0.007 -0.326,0.008 -0.705,0.015 -0.217,0.003 -0.27,0.005 -0.323,0.005 -0.216,0.002 -0.216,0.003 -0.215,0.002 -0.321,0.003 -0.215,10e-4 -0.214,0.002 -0.16,0 -0.107,0.001 -0.213,0 -0.319,10e-4 -0.372,-10e-4 -0.266,-0.001 -0.265,-10e-4 -0.264,-0.002 -0.37,-0.003 -0.211,-0.003 -0.21,-0.002 -0.263,-0.004 -0.158,-0.002 -0.261,-0.005 -0.262,-0.004 -0.313,-0.007 -0.209,-0.004 -0.156,-0.004 -0.208,-0.005 -0.104,-0.003 -0.26,-0.006 -0.155,-0.005 -0.103,-0.003 -0.104,-0.003 -0.103,-0.003 -0.155,-0.005 -0.309,-0.01 -0.155,-0.005 -0.257,-0.009 -0.205,-0.008 -0.154,-0.006 -0.153,-0.006 -0.051,-0.002 -0.154,-0.006 -0.102,-0.004 -0.255,-0.011 -0.153,-0.007 -0.152,-0.007 -0.204,-0.01 -0.101,-0.004 -0.102,-0.005 -0.152,-0.008 -0.202,-0.01 -0.102,-0.005 -0.151,-0.008 -0.101,-0.006 -0.151,-0.008 -0.051,-0.003 -0.201,-0.011 -0.101,-0.006 -0.05,-0.002 -0.201,-0.012 -0.15,-0.009 -0.2,-0.012 -0.25,-0.016 -0.15,-0.01 -0.299,-0.019 -0.199,-0.013 -0.248,-0.018 -0.198,-0.014 -0.199,-0.014 -0.291,-0.021 -0.223,-0.017 -0.286,-0.022 -0.395,-0.032 -0.221,-0.018 -0.174,-0.015 -0.448,-0.038 -0.282,-0.026 -0.328,-0.029 -0.273,-0.026 -0.109,-0.01 -0.272,-0.027 -0.28,-0.027 -0.224,-0.023 -0.44,-0.045 -0.169,-0.018 -0.215,-0.023 -0.222,-0.024 -0.39,-0.043 -0.167,-0.019 -0.107,-0.013 -0.22,-0.025 -0.167,-0.02 -0.273,-0.032 -0.053,-0.007 -0.279,-0.034 -0.219,-0.027 -0.165,-0.021 -0.105,-0.013 -0.053,-0.007 -0.112,-0.014 -0.165,-0.021 -0.052,-0.007 -0.209,-0.027 -0.276,-0.037 -0.215,-0.029 -0.163,-0.023 -0.163,-0.022 -0.156,-0.022 -0.155,-0.022 -0.162,-0.023 -0.213,-0.03 -0.155,-0.023 -0.102,-0.015 -0.103,-0.015 -0.424,-0.064 -0.262,-0.04 -0.152,-0.023 -0.268,-0.042 -0.109,-0.017 -0.252,-0.041 -0.353,-0.057 -0.208,-0.035 -0.15,-0.025 -0.158,-0.026 -0.099,-0.017 -0.15,-0.026 -0.05,-0.008 -0.05,-0.009 -0.05,-0.008 -0.056,-0.01 -0.05,-0.009 -0.05,-0.008 -0.049,-0.009" />
      </g>
      <g
         id="g3573">
        <path
           inkscape:connector-curvature="0"
           id="path3575"
           style="fill:none;stroke:#a9a9a9;stroke-width:0.40000001;stroke-linecap:round;stroke-linejoin:round;stroke-miterlimit:10;stroke-dasharray:none;stroke-opacity:1"
           d="m 66.6679,511.787 -5e-4,0.053 -4e-4,0.052 -3e-4,0.053 0,0.053 0,0.052 3e-4,0.053 3e-4,0.052 6e-4,0.053 6e-4,0.052 0.0018,0.106 0.0012,0.052 0.0013,0.053 0.0014,0.052 0.0016,0.053 0.0036,0.105 0.0021,0.053 0.0021,0.052 0.0024,0.053 0.008,0.158 0.0029,0.052 0.0064,0.106 0.0034,0.053 0.0073,0.105 0.0039,0.052 0.004,0.053 0.0085,0.105 0.0139,0.158 0.01,0.105 0.0162,0.158 0.0115,0.105 0.006,0.053 0.0125,0.105 0.0064,0.052 0.0066,0.053 0.0068,0.052 0.0139,0.105 0.0072,0.053 0.015,0.105 0.0076,0.053 0.0158,0.105 0.0082,0.053 0.0167,0.105 0.0086,0.052 0.0177,0.106 0.0092,0.053 0.0091,0.053 0.0286,0.158 0.0098,0.053 0.0202,0.105 0.0104,0.054 0.0104,0.052 0.0108,0.053 0.0107,0.053 0.011,0.053 0.1912,-0.013 0.0153,0.049 0.0045,0.014 0.0155,0.048 0.0158,0.049 0.0159,0.048 0.0209,0.063 0.0164,0.049 0.0214,0.062 0.0217,0.063 0.0171,0.048 0.0173,0.049 0.0226,0.062 0.0178,0.049 0.0051,0.014 0.018,0.048 0.0182,0.048 0.0238,0.063 0.0241,0.062 0.0189,0.049 0.0191,0.048 0.0249,0.062 0.0196,0.048 0.0255,0.063 0.02,0.048 0.0261,0.062 0.0204,0.048 0.006,0.014 0.0207,0.048 0.006,0.014 0.0635,0.145 0.0062,0.014 0.0216,0.048 0.0282,0.062 0.0284,0.062 0.0224,0.048 0.029,0.062 0.0228,0.048 0.0296,0.061 0.0233,0.048 0.0539,0.11 0.0308,0.062 0.0241,0.048 0.0314,0.061 0.0071,0.014 0.0318,0.062 0.0249,0.048 0.0577,0.109 0.0255,0.047 0.0074,0.014 0.0258,0.048 0.0336,0.061 0.0338,0.062 0.0265,0.047 0.0077,0.014 0.0268,0.048 0.0077,0.013 0.0542,0.095 0.0274,0.048 0.0839,0.143 0.0176,0.03 0.0176,0.029 0.0343,0.057 0.0179,0.03 0.0347,0.057 0.0181,0.029 0.0181,0.03 0.0525,0.084 0.0185,0.029 0.0359,0.057 0.0187,0.03 0.0363,0.057 0.0189,0.029 0.0368,0.057 0.037,0.056 0.0374,0.057 0.0194,0.029 0.0758,0.114 0.0198,0.029 0.0385,0.056 0.059,0.086 0.0202,0.029 0.0394,0.056 0.0191,0.028 0.0398,0.056 0.0207,0.029 0.0402,0.056 0.0616,0.086 0.041,0.056 0.0412,0.056 0.0214,0.029 0.0417,0.056 0.0624,0.083 0.0424,0.056 0.0426,0.056 0.0222,0.029 0.0431,0.056 0.0434,0.055 0.0437,0.056 0.044,0.056 0.0442,0.055 0.0446,0.056 0.0231,0.029 0.0217,0.027 0.0451,0.055 0.0234,0.029 0.0441,0.053 0.0236,0.029 0.046,0.055 0.0463,0.056 0.0465,0.055 0.0226,0.027 0.0242,0.028 0.0472,0.055 0.0244,0.029 0.0476,0.055 0.0478,0.055 0.0233,0.027 0.0499,0.056 0.0234,0.027 0.0251,0.028 0.0489,0.055 0.0746,0.083 0.0496,0.055 0.0499,0.055 0.0258,0.028 0.0503,0.054 0.0245,0.027 0.0261,0.028 0.0246,0.026 0.051,0.055 0.0265,0.028 0.0514,0.054 0.025,0.026 0.0267,0.029 0.052,0.054 0.0524,0.054 0.0525,0.054 0.0529,0.054 0.0275,0.028 0.0533,0.054 0.0276,0.028 0.0538,0.054 0.054,0.054 0.0543,0.054 0.0282,0.028 0.0264,0.025 0.0284,0.028 0.055,0.054 0.0286,0.028 0.0267,0.026 0.0288,0.027 0.0269,0.026 0.0288,0.028 0.0271,0.026 0.029,0.027 0.0272,0.026 0.0564,0.053 0.0293,0.028 0.0275,0.026 0.0294,0.027 0.0276,0.026 0.0871,0.081 0.0279,0.025 0.0579,0.053 0.0281,0.026 0.0301,0.027 0.0585,0.053 0.0588,0.053 0.059,0.053 0.0594,0.053 0.0287,0.025 0.0309,0.027 0.089,0.079 0.0291,0.025 0.0312,0.027 0.0293,0.025 0.0607,0.053 0.0611,0.052 0.0613,0.053 0.0616,0.052 0.062,0.052 0.03,0.025 0.0946,0.079 0.0303,0.025 0.0325,0.027 0.0609,0.05 0.0327,0.027 0.0964,0.079 0.0309,0.025 0.0331,0.026 0.0953,0.077 0.0646,0.052 0.0335,0.026 0.0651,0.052 0.0316,0.024 0.0655,0.052 0.0339,0.026 0.0659,0.052 0.0342,0.026 0.032,0.025 0.0688,0.053 0.0992,0.075 0.0672,0.051 0.0675,0.051 0.0178,0.013 0.0242,0.019 0.0687,0.051 0.0509,0.038 0.0181,0.013 0.033,0.024 0.0512,0.038 0.0696,0.051 0.0516,0.038 0.0518,0.037 0.0335,0.025 0.0704,0.05 0.0523,0.038 0.0863,0.061 0.0526,0.038 0.0528,0.037 0.0342,0.024 0.0531,0.037 0.0188,0.014 0.0344,0.024 0.0723,0.05 0.0693,0.048 0.0347,0.024 0.0191,0.013 0.0348,0.024 0.0891,0.061 0.035,0.024 0.0544,0.036 0.0546,0.037 0.0353,0.024 0.0354,0.024 0.055,0.037 0.0355,0.023 0.0356,0.024 0.0553,0.037 0.0358,0.023 0.0718,0.047 0.0557,0.037 0.0361,0.024 0.056,0.036 0.0363,0.024 0.0363,0.023 0.0563,0.036 0.0365,0.024 0.0365,0.023 0.0935,0.06 0.0367,0.023 0.0369,0.024 0.0774,0.049 0.037,0.023 0.0371,0.023 0.0576,0.036 0.0577,0.036 0.0579,0.036 0.075,0.046 0.0582,0.036 0.0962,0.059 0.0586,0.036 0.0969,0.058 0.0208,0.013 0.0591,0.036 0.0383,0.023 0.021,0.012 0.0383,0.023 0.0595,0.036 0.0808,0.047 0.0387,0.023 0.0387,0.023 0.0989,0.058 0.0603,0.035 0.0604,0.036 0.0392,0.022 0.0392,0.023 0.0608,0.035 0.0393,0.023 0.0216,0.012 0.0394,0.023 0.0612,0.034 0.0614,0.035 0.0397,0.023 0.1015,0.057 0.0399,0.023 0.0219,0.012 0.1021,0.057 0.0402,0.022 0.1027,0.057 0.0626,0.035 0.0405,0.022 0.0628,0.034 0.063,0.035 0.0631,0.034 0.0409,0.022 0.0224,0.012 0.082,0.045 0.0636,0.034 0.0638,0.034 0.1052,0.056 0.0227,0.012 0.0415,0.022 0.0643,0.034 0.0228,0.012 0.0834,0.044 0.0229,0.012 0.0647,0.033 0.0419,0.022 0.023,0.012 0.1072,0.056 0.0421,0.021 0.0886,0.046 0.0424,0.021 0.0657,0.034 0.0658,0.033 0.0426,0.022 0.0234,0.012 0.1089,0.055 0.0428,0.021 0.0665,0.033 0.043,0.022 0.0431,0.021 0.11,0.055 0.0866,0.042 0.0238,0.012 0.0673,0.033 0.0435,0.021 0.0436,0.022 0.1113,0.054 0.0438,0.021 0.0439,0.021 0.0241,0.011 0.0439,0.022 0.0682,0.032 0.0441,0.021 0.1127,0.054 0.0444,0.021 0.1132,0.053 0.069,0.032 0.0446,0.021 0.114,0.053 0.0695,0.033 0.0899,0.041 0.0698,0.032 0.1605,0.073 0.1158,0.053 0.0455,0.02 0.0706,0.032 0.0456,0.021 0.0458,0.02 0.0709,0.032 0.071,0.031 0.046,0.021 0.0713,0.031 0.0461,0.021 0.1432,0.062 0.0464,0.021 0.0719,0.031 0.0931,0.04 0.0722,0.031 0.0724,0.032 0.0725,0.031 0.0469,0.02 0.0728,0.031 0.0471,0.02 0.1201,0.05 0.0732,0.031 0.0474,0.02 0.121,0.051 0.0736,0.03 0.0477,0.02 0.0955,0.039 0.0478,0.02 0.095,0.039 0.0423,0.017 0.0423,0.017 0.0976,0.04 0.0553,0.022 0.0851,0.035 0.0982,0.039 0.0427,0.017 0.0557,0.023 0.1286,0.051 0.1121,0.044 0.1424,0.056 0.0865,0.034 0.0998,0.038 0.0868,0.034 0.1439,0.055 0.1005,0.039 0.0438,0.016 0.0438,0.017 0.0133,0.005 0.0877,0.033 0.1453,0.055 0.1016,0.038 0.0442,0.017 0.1462,0.054 0.0888,0.033 0.089,0.032 0.1338,0.049 0.103,0.038 0.0447,0.016 0.0585,0.021 0.0448,0.016 0.0899,0.033 0.1038,0.037 0.0451,0.016 0.0904,0.032 0.0905,0.032 0.1045,0.037 0.1047,0.036 0.0911,0.032 0.0456,0.016 0.1052,0.037 0.1055,0.036 0.0918,0.032 0.1059,0.036 0.0921,0.031 0.0923,0.031 0.014,0.005 0.1389,0.047 0.0604,0.02 0.0929,0.031 0.1071,0.036 0.1074,0.035 0.0935,0.031 0.1078,0.035 0.0469,0.015 0.1081,0.036 0.0471,0.015 0.2171,0.07 0.0473,0.015 0.0616,0.02 0.1092,0.034 0.0474,0.015 0.1095,0.035 0.1574,0.049 0.0477,0.015 0.0768,0.024 0.0957,0.03 0.0625,0.019 0.0625,0.019 0.0626,0.019 0.0963,0.03 0.111,0.034 0.145,0.044 0.0968,0.029 0.0632,0.019 0.1119,0.033 0.1121,0.033 0.1123,0.034 0.1125,0.033 0.1127,0.033 0.0491,0.014 0.113,0.033 0.0492,0.014 0.1627,0.047 0.1136,0.032 0.0495,0.014 0.114,0.033 0.0992,0.028 0.1144,0.032 0.1645,0.046 0.0498,0.014 0.0999,0.027 0.0501,0.014 0.1153,0.032 0.0653,0.018 0.0502,0.013 0.1661,0.045 0.1008,0.027 0.1009,0.028 0.1165,0.031 0.0659,0.017 0.1014,0.027 0.117,0.031 0.1018,0.027 0.1019,0.026 0.051,0.013 0.0511,0.014 0.1689,0.043 0.1025,0.027 0.1696,0.043 0.1545,0.039 0.1548,0.039 0.1034,0.026 0.0675,0.016 0.1555,0.039 0.0677,0.016 0.1561,0.039 0.0679,0.016 0.1202,0.029 0.0522,0.013 0.157,0.037 0.1208,0.029 0.0525,0.013 0.1577,0.037 0.1214,0.028 0.1743,0.041 0.1588,0.037 0.1221,0.028 0.1062,0.024 0.1225,0.028 0.1227,0.027 0.2672,0.06 0.1071,0.024 0.0536,0.012 0.0537,0.012 0.0699,0.015 0.1239,0.027 0.1368,0.03 0.0472,0.01 0.0472,0.01 0.0945,0.02 0.1013,0.022 0.0474,0.01 0.0948,0.02 0.0949,0.02 0.1018,0.022 0.0952,0.019 0.0476,0.01 0.1976,0.041 0.0956,0.02 0.1436,0.029 0.1506,0.031 0.0961,0.019 0.0962,0.019 0.0481,0.01 0.055,0.011 0.0964,0.019 0.0483,0.01 0.0483,0.009 0.0966,0.019 0.0488,0.01 0.055,0.011 0.145,0.028 0.153,0.029 0.097,0.019 0.049,0.009 0.048,0.009 0.098,0.019 0.056,0.01 0.097,0.019 0.147,0.027 0.105,0.02 0.098,0.018 0.105,0.019 0.049,0.009 0.204,0.037 0.099,0.018 0.552,0.098 0,0 0,0 0.098,0.017 0.051,0.009 0.051,0.009 0.102,0.017 0.051,0.009 0.153,0.026 0.103,0.018 0.102,0.017 0.102,0.017 0.111,0.018 0.154,0.026 0.103,0.017 0.102,0.016 0.051,0.009 0.103,0.016 0.103,0.017 0.102,0.016 0.103,0.017 0.155,0.024 0.102,0.016 0.155,0.024 0.103,0.016 0.214,0.033 0.258,0.039 0.162,0.024 0.103,0.015 0.103,0.015 0.111,0.017 0.104,0.015 0.051,0.007 0.052,0.007 0.059,0.009 0.155,0.022 0.059,0.009 0.155,0.021 0.052,0.008 0.103,0.014 0.052,0.007 0.059,0.008 0.155,0.022 0.103,0.014 0.156,0.021 0.052,0.007 0.11,0.014 0.156,0.021 0.162,0.021 0.052,0.007 0.103,0.013 0.052,0.007 0.104,0.013 0.058,0.008 0.104,0.013 0.162,0.02 0.156,0.02 0.11,0.013 0.052,0.007 0.052,0.006 0.052,0.006 0.104,0.013 0.058,0.007 0.104,0.012 0.104,0.013 0.052,0.006 0.052,0.006 0.052,0.006 0.052,0.006 0.162,0.019 0.104,0.012 0.208,0.024 0.104,0.011 0.162,0.018 0.208,0.023 0.052,0.006 0.209,0.023 0.052,0.005 0.162,0.017 0.104,0.011 0.006,10e-4 0.104,0.011 0.109,0.011 0.104,0.011 0.157,0.016 0.162,0.016 0.052,0.005 0.161,0.016 0.058,0.006 0.213,0.02 0.052,0.005 0.162,0.016 0.104,0.009 0.052,0.005 0.166,0.016 0.157,0.014 0.156,0.014 0.052,0.005 0.161,0.014 0.157,0.013 0.209,0.018 0.104,0.009 0.057,0.005 0.104,0.009 0.053,0.004 0.208,0.017 0.157,0.013 0.109,0.008 0.157,0.013 0.157,0.012 0.052,0.004 0.052,0.004 0.216,0.016 0.049,0.004 0.157,0.011 0.105,0.008 0.105,0.008 0.104,0.007 0.053,0.004 0.052,0.003 0.108,0.008 0.053,0.003 0.104,0.008 0.053,0.003 0.104,0.007 0.053,0.004 0.052,0.003 0.052,0.004 0.105,0.006 0.105,0.007 0.052,0.004 0.053,0.003 0.108,0.007 0.104,0.006 0.105,0.007 0.053,0.003 0.107,0.006 0.053,0.004 0.052,0.003 0.053,0.003 0.052,0.003 0.052,0.003" />
      </g>
      <g
         id="g3577">
        <path
           inkscape:connector-curvature="0"
           id="path3579"
           style="fill:none;stroke:#000000;stroke-width:0.40000001;stroke-linecap:butt;stroke-linejoin:round;stroke-miterlimit:10;stroke-dasharray:none;stroke-opacity:1"
           d="m 388,512 116,0" />
        <g
           id="g3581">
          <g
             id="g3583">
            <path
               inkscape:connector-curvature="0"
               id="path3585"
               style="fill:#000000;fill-opacity:1;fill-rule:evenodd;stroke:#000000;stroke-width:0.40000001;stroke-linecap:butt;stroke-linejoin:round;stroke-miterlimit:10;stroke-dasharray:none;stroke-opacity:1"
               d="m 504,512 -7,2.331 0,-4.662 7,2.331 z" />
          </g>
        </g>
        <g
           id="g3587">
          <g
             id="g3589">
            <path
               inkscape:connector-curvature="0"
               id="path3591"
               style="fill:#000000;fill-opacity:1;fill-rule:evenodd;stroke:#000000;stroke-width:0.40000001;stroke-linecap:butt;stroke-linejoin:round;stroke-miterlimit:10;stroke-dasharray:none;stroke-opacity:1"
               d="m 388,512 7,-2.331 0,4.662 -7,-2.331 z" />
          </g>
        </g>
      </g>
      <g
         transform="translate(400,514.51)"
         id="g3593">
        <g
           transform="translate(0,-786.216)"
           id="g3595">
          <text
             id="text3597"
             style="font-variant:normal;font-weight:normal;font-size:9.96259975px;font-family:CMMI10;-inkscape-font-specification:CMMI10;writing-mode:lr-tb;fill:#000000;fill-opacity:1;fill-rule:nonzero;stroke:none"
             transform="matrix(1,0,0,-1,0,787.71)">
            <tspan
               id="tspan3599"
               y="0"
               x="0">r</tspan>
          </text>
          <text
             id="text3601"
             style="font-variant:normal;font-weight:normal;font-size:6.97380018px;font-family:CMR7;-inkscape-font-specification:CMR7;writing-mode:lr-tb;fill:#000000;fill-opacity:1;fill-rule:nonzero;stroke:none"
             transform="matrix(1,0,0,-1,4.495,786.216)">
            <tspan
               id="tspan3603"
               y="0"
               x="0">2</tspan>
          </text>
        </g>
      </g>
      <g
         id="g3605">
        <g
           id="g3607">
          <path
             inkscape:connector-curvature="0"
             id="path3609"
             style="fill:#000000;fill-opacity:1;fill-rule:evenodd;stroke:none"
             d="m 433.8,512 c 0,0.994 -0.806,1.8 -1.8,1.8 -0.994,0 -1.8,-0.806 -1.8,-1.8 0,-0.994 0.806,-1.8 1.8,-1.8 0.994,0 1.8,0.806 1.8,1.8" />
        </g>
      </g>
      <g
         id="g3611">
        <path
           inkscape:connector-curvature="0"
           id="path3613"
           style="fill:none;stroke:#000000;stroke-width:0.40000001;stroke-linecap:butt;stroke-linejoin:round;stroke-miterlimit:10;stroke-dasharray:none;stroke-opacity:1"
           d="m 432,520 c -4.418,0 -8,-3.582 -8,-8 0,-4.418 3.582,-8 8,-8 2.122,0 4.157,0.843 5.657,2.343" />
        <g
           id="g3615">
          <g
             id="g3617">
            <path
               inkscape:connector-curvature="0"
               id="path3619"
               style="fill:#000000;fill-opacity:1;fill-rule:evenodd;stroke:#000000;stroke-width:0.40000001;stroke-linecap:butt;stroke-linejoin:round;stroke-miterlimit:10;stroke-dasharray:none;stroke-opacity:1"
               d="m 437.657,506.343 -2.828,-1.415 1.413,-1.413 1.415,2.828 z" />
          </g>
        </g>
      </g>
      <g
         id="g3621">
        <path
           inkscape:connector-curvature="0"
           id="path3623"
           style="fill:none;stroke:#000000;stroke-width:0.40000001;stroke-linecap:butt;stroke-linejoin:round;stroke-miterlimit:10;stroke-dasharray:none;stroke-opacity:1"
           d="m 432,512 16,-16" />
        <g
           id="g3625">
          <g
             id="g3627">
            <path
               inkscape:connector-curvature="0"
               id="path3629"
               style="fill:#000000;fill-opacity:1;fill-rule:evenodd;stroke:#000000;stroke-width:0.40000001;stroke-linecap:butt;stroke-linejoin:round;stroke-miterlimit:10;stroke-dasharray:none;stroke-opacity:1"
               d="m 448,496 -1.415,2.828 -1.413,-1.413 L 448,496 Z" />
          </g>
        </g>
      </g>
      <g
         transform="translate(420,498.51)"
         id="g3631">
        <g
           transform="translate(0,-786.216)"
           id="g3633">
          <text
             id="text3635"
             style="font-variant:normal;font-weight:normal;font-size:9.96259975px;font-family:CMMI10;-inkscape-font-specification:CMMI10;writing-mode:lr-tb;fill:#000000;fill-opacity:1;fill-rule:nonzero;stroke:none"
             transform="matrix(1,0,0,-1,0,787.71)">
            <tspan
               id="tspan3637"
               y="0"
               x="0">r</tspan>
          </text>
          <text
             id="text3639"
             style="font-variant:normal;font-weight:normal;font-size:6.97380018px;font-family:CMR7;-inkscape-font-specification:CMR7;writing-mode:lr-tb;fill:#000000;fill-opacity:1;fill-rule:nonzero;stroke:none"
             transform="matrix(1,0,0,-1,4.495,786.216)">
            <tspan
               id="tspan3641"
               y="0"
               x="0">3</tspan>
          </text>
        </g>
      </g>
      <g
         transform="translate(444,502.51)"
         id="g3643">
        <g
           transform="translate(0,-786.216)"
           id="g3645">
          <text
             id="text3647"
             style="font-variant:normal;font-weight:normal;font-size:9.96259975px;font-family:CMMI10;-inkscape-font-specification:CMMI10;writing-mode:lr-tb;fill:#000000;fill-opacity:1;fill-rule:nonzero;stroke:none"
             transform="matrix(1,0,0,-1,0,787.71)">
            <tspan
               id="tspan3649"
               y="0"
               x="0">r</tspan>
          </text>
          <text
             id="text3651"
             style="font-variant:normal;font-weight:normal;font-size:6.97380018px;font-family:CMR7;-inkscape-font-specification:CMR7;writing-mode:lr-tb;fill:#000000;fill-opacity:1;fill-rule:nonzero;stroke:none"
             transform="matrix(1,0,0,-1,4.495,786.216)">
            <tspan
               id="tspan3653"
               y="0"
               x="0">4</tspan>
          </text>
        </g>
      </g>
      <g
         id="g3655">
        <path
           inkscape:connector-curvature="0"
           id="path3657"
           style="fill:none;stroke:#000000;stroke-width:0.40000001;stroke-linecap:butt;stroke-linejoin:round;stroke-miterlimit:10;stroke-dasharray:none;stroke-opacity:1"
           d="M 448.713,537.524 C 436.162,557.2 368.018,571.683 288,571.683" />
        <g
           id="g3659">
          <g
             id="g3661">
            <path
               inkscape:connector-curvature="0"
               id="path3663"
               style="fill:#000000;fill-opacity:1;fill-rule:evenodd;stroke:#000000;stroke-width:0.40000001;stroke-linecap:butt;stroke-linejoin:round;stroke-miterlimit:10;stroke-dasharray:none;stroke-opacity:1"
               d="m 448.713,537.524 -0.771,3.067 -1.685,-1.075 2.456,-1.992 z" />
          </g>
        </g>
      </g>
      <g
         transform="translate(284,562.51)"
         id="g3665">
        <g
           transform="translate(0,-786.216)"
           id="g3667">
          <text
             id="text3669"
             style="font-variant:normal;font-weight:normal;font-size:9.96259975px;font-family:CMMI10;-inkscape-font-specification:CMMI10;writing-mode:lr-tb;fill:#000000;fill-opacity:1;fill-rule:nonzero;stroke:none"
             transform="matrix(1,0,0,-1,0,787.71)">
            <tspan
               id="tspan3671"
               y="0"
               x="0">r</tspan>
          </text>
          <text
             id="text3673"
             style="font-variant:normal;font-weight:normal;font-size:6.97380018px;font-family:CMR7;-inkscape-font-specification:CMR7;writing-mode:lr-tb;fill:#000000;fill-opacity:1;fill-rule:nonzero;stroke:none"
             transform="matrix(1,0,0,-1,4.495,786.216)">
            <tspan
               id="tspan3675"
               y="0"
               x="0">1</tspan>
          </text>
        </g>
      </g>
      <g
         id="g3677">
        <path
           inkscape:connector-curvature="0"
           id="path3679"
           style="fill:none;stroke:#000000;stroke-width:0.40000001;stroke-linecap:butt;stroke-linejoin:round;stroke-miterlimit:10;stroke-dasharray:1, 3;stroke-dashoffset:0;stroke-opacity:1"
           d="m 457.657,492 c 0,3.124 -2.533,5.657 -5.657,5.657 -3.124,0 -5.657,-2.533 -5.657,-5.657 0,-3.124 2.533,-5.657 5.657,-5.657 3.124,0 5.657,2.533 5.657,5.657" />
      </g>
      <g
         id="g3681">
        <path
           inkscape:connector-curvature="0"
           id="path3683"
           style="fill:none;stroke:#000000;stroke-width:0.40000001;stroke-linecap:butt;stroke-linejoin:round;stroke-miterlimit:10;stroke-dasharray:1, 3;stroke-dashoffset:0;stroke-opacity:1"
           d="m 454.103,492 c 0,1.161 -0.942,2.103 -2.103,2.103 -1.161,0 -2.103,-0.942 -2.103,-2.103 0,-1.161 0.942,-2.103 2.103,-2.103 1.161,0 2.103,0.942 2.103,2.103" />
      </g>
      <g
         transform="translate(464,494.51)"
         id="g3685">
        <g
           transform="translate(0,-786.216)"
           id="g3687">
          <text
             id="text3689"
             style="font-variant:normal;font-weight:normal;font-size:9.96259975px;font-family:CMMI10;-inkscape-font-specification:CMMI10;writing-mode:lr-tb;fill:#000000;fill-opacity:1;fill-rule:nonzero;stroke:none"
             transform="matrix(1,0,0,-1,0,787.71)">
            <tspan
               id="tspan3691"
               y="0"
               x="0">r</tspan>
          </text>
          <text
             id="text3693"
             style="font-variant:normal;font-weight:normal;font-size:6.97380018px;font-family:CMR7;-inkscape-font-specification:CMR7;writing-mode:lr-tb;fill:#000000;fill-opacity:1;fill-rule:nonzero;stroke:none"
             transform="matrix(1,0,0,-1,4.495,786.216)">
            <tspan
               id="tspan3695"
               y="0"
               x="0">5</tspan>
          </text>
        </g>
      </g>
    </g>
  </g>
</svg>
