<?xml version="1.0" encoding="UTF-8" standalone="no"?>
<!-- Created with Inkscape (http://www.inkscape.org/) -->

<svg
   xmlns:dc="http://purl.org/dc/elements/1.1/"
   xmlns:cc="http://creativecommons.org/ns#"
   xmlns:rdf="http://www.w3.org/1999/02/22-rdf-syntax-ns#"
   xmlns:svg="http://www.w3.org/2000/svg"
   xmlns="http://www.w3.org/2000/svg"
   xmlns:sodipodi="http://sodipodi.sourceforge.net/DTD/sodipodi-0.dtd"
   xmlns:inkscape="http://www.inkscape.org/namespaces/inkscape"
   width="197.63739mm"
   height="101.74111mm"
   viewBox="0 0 700.28997 360.5"
   id="svg5498"
   version="1.1"
   inkscape:version="0.91 r13725"
   sodipodi:docname="scenegraph.svg">
  <defs
     id="defs5500" />
  <sodipodi:namedview
     id="base"
     pagecolor="#ffffff"
     bordercolor="#666666"
     borderopacity="1.0"
     inkscape:pageopacity="0.0"
     inkscape:pageshadow="2"
     inkscape:zoom="0.35"
     inkscape:cx="-970.5693"
     inkscape:cy="531.67858"
     inkscape:document-units="px"
     inkscape:current-layer="layer1"
     showgrid="false"
     fit-margin-top="0"
     fit-margin-left="0"
     fit-margin-right="0"
     fit-margin-bottom="0"
     inkscape:window-width="3440"
     inkscape:window-height="1377"
     inkscape:window-x="-8"
     inkscape:window-y="-8"
     inkscape:window-maximized="1" />
  <metadata
     id="metadata5503">
    <rdf:RDF>
      <cc:Work
         rdf:about="">
        <dc:format>image/svg+xml</dc:format>
        <dc:type
           rdf:resource="http://purl.org/dc/dcmitype/StillImage" />
        <dc:title></dc:title>
      </cc:Work>
    </rdf:RDF>
  </metadata>
  <g
     inkscape:label="Layer 1"
     inkscape:groupmode="layer"
     id="layer1"
     transform="translate(-686.99787,-817.8265)">
    <g
       transform="matrix(1.25,0,0,-1.25,647.24787,1798.0765)"
       inkscape:label="scenegraph"
       id="g5514">
      <g
         id="g5516">
        <path
           inkscape:connector-curvature="0"
           id="path5518"
           style="fill:none;stroke:#000000;stroke-width:0.40000001;stroke-linecap:butt;stroke-linejoin:round;stroke-miterlimit:10;stroke-dasharray:none;stroke-opacity:1"
           d="m 432,768 c 0,8.837 -7.163,16 -16,16 -8.837,0 -16,-7.163 -16,-16 0,-8.837 7.163,-16 16,-16 8.837,0 16,7.163 16,16" />
      </g>
      <g
         id="g5520">
        <path
           inkscape:connector-curvature="0"
           id="path5522"
           style="fill:none;stroke:#000000;stroke-width:0.40000001;stroke-linecap:butt;stroke-linejoin:round;stroke-miterlimit:10;stroke-dasharray:none;stroke-opacity:1"
           d="m 432,704 c 0,8.837 -7.163,16 -16,16 -8.837,0 -16,-7.163 -16,-16 0,-8.837 7.163,-16 16,-16 8.837,0 16,7.163 16,16" />
      </g>
      <g
         id="g5524">
        <path
           inkscape:connector-curvature="0"
           id="path5526"
           style="fill:none;stroke:#000000;stroke-width:0.40000001;stroke-linecap:butt;stroke-linejoin:round;stroke-miterlimit:10;stroke-dasharray:none;stroke-opacity:1"
           d="m 416,752 0,-32" />
      </g>
      <g
         transform="translate(480,763.098)"
         id="g5528">
        <g
           transform="translate(0,-782.197)"
           id="g5530">
          <text
             id="text5532"
             style="font-variant:normal;font-weight:normal;font-size:14.34619999px;font-family:CMR12;-inkscape-font-specification:CMR12;writing-mode:lr-tb;fill:#000000;fill-opacity:1;fill-rule:nonzero;stroke:none"
             transform="matrix(1,0,0,-1,0,782.197)">
            <tspan
               id="tspan5534"
               sodipodi:role="line"
               y="0"
               x="0 10.337872 17.749119 24.773018">Root</tspan>
          </text>
        </g>
      </g>
      <g
         transform="translate(480,699.098)"
         id="g5536">
        <g
           transform="translate(0,-782.197)"
           id="g5538">
          <text
             id="text5540"
             style="font-variant:normal;font-weight:normal;font-size:14.34619999px;font-family:CMR12;-inkscape-font-specification:CMR12;writing-mode:lr-tb;fill:#000000;fill-opacity:1;fill-rule:nonzero;stroke:none"
             transform="matrix(1,0,0,-1,0,782.197)">
            <tspan
               id="tspan5542"
               sodipodi:role="line"
               y="0"
               x="0 7.8043327 15.608665">Sun</tspan>
          </text>
        </g>
      </g>
      <g
         transform="translate(432,734.07)"
         id="g5544">
        <g
           transform="translate(0,-783.144)"
           id="g5546">
          <text
             id="text5548"
             style="font-variant:normal;font-weight:normal;font-size:9.96259975px;font-family:CMR10;-inkscape-font-specification:CMR10;writing-mode:lr-tb;fill:#000000;fill-opacity:1;fill-rule:nonzero;stroke:none"
             transform="matrix(1,0,0,-1,0,785.081)">
            <tspan
               id="tspan5550"
               sodipodi:role="line"
               y="0"
               x="0 5.5352206 13.834066 17.708521 21.610872 26.592173 32.127392 36.056641 38.824253 43.805553 47.680008 50.447617 55.428917 60.964138 67.049294 72.584518 80.893326 84.795677 89.77697 93.651428 98.632729 102.50719 105.2748 110.2561 115.79131 121.87647 127.41169 130.17931 138.47815 142.40739 146.83478 151.81607 154.58368">notranslation,norotation,bigscale</tspan>
          </text>
        </g>
      </g>
      <g
         id="g5552">
        <path
           inkscape:connector-curvature="0"
           id="path5554"
           style="fill:none;stroke:#000000;stroke-width:0.40000001;stroke-linecap:butt;stroke-linejoin:round;stroke-miterlimit:10;stroke-dasharray:none;stroke-opacity:1"
           d="m 240,704 c 0,8.837 -7.163,16 -16,16 -8.837,0 -16,-7.163 -16,-16 0,-8.837 7.163,-16 16,-16 8.837,0 16,7.163 16,16" />
      </g>
      <g
         id="g5556">
        <path
           inkscape:connector-curvature="0"
           id="path5558"
           style="fill:none;stroke:#000000;stroke-width:0.40000001;stroke-linecap:butt;stroke-linejoin:round;stroke-miterlimit:10;stroke-dasharray:none;stroke-opacity:1"
           d="m 400,768 c -112,0 -176,0 -176,-48" />
      </g>
      <g
         transform="translate(256,699.019)"
         id="g5560">
        <g
           transform="translate(0,-782.037)"
           id="g5562">
          <text
             id="text5564"
             style="font-variant:normal;font-weight:normal;font-size:14.34619999px;font-family:CMR12;-inkscape-font-specification:CMR12;writing-mode:lr-tb;fill:#000000;fill-opacity:1;fill-rule:nonzero;stroke:none"
             transform="matrix(1,0,0,-1,0,782.037)">
            <tspan
               id="tspan5566"
               sodipodi:role="line"
               y="0"
               x="0 9.5574389 16.581339 22.044371 27.507404 39.988598 50.326469 56.569935 63.596706 70.620605 74.522774 82.327103 87.790138 91.692299 98.716202">EarthRevolution</tspan>
          </text>
        </g>
      </g>
      <g
         transform="translate(240,729.05)"
         id="g5568">
        <g
           transform="translate(0,-773.126)"
           id="g5570">
          <text
             id="text5572"
             style="font-variant:normal;font-weight:normal;font-size:9.96259975px;font-family:CMR10;-inkscape-font-specification:CMR10;writing-mode:lr-tb;fill:#000000;fill-opacity:1;fill-rule:nonzero;stroke:none"
             transform="matrix(1,0,0,-1,0,785.081)">
            <tspan
               id="tspan5574"
               sodipodi:role="line"
               y="0"
               x="0 3.8744552 7.7768054 12.758105 18.293325 22.222576 24.990187 29.971485 33.84594 36.613552 41.594852 47.130074 56.592548 61.571857 65.999237 70.426613 74.301071 79.282372 83.184723 90.68457 94.559021 100.09425 105.07554 113.40328 120.32928 129.20995 133.11229 138.0936">translation:vector,thatwero-</tspan>
            <tspan
               id="tspan5576"
               sodipodi:role="line"
               y="11.955"
               x="0 3.8744552 8.8557549 12.73021 20.475136 25.456436 29.358786 34.340084 39.875305 45.410526 54.273254 58.147713 63.68293 71.427856 74.195465 79.455719 83.883102 88.864403 94.949554 99.376938 103.80431 109.06059 112.93504 117.36242">tatearoundthelocalcenter</tspan>
          </text>
        </g>
      </g>
      <g
         id="g5578">
        <path
           inkscape:connector-curvature="0"
           id="path5580"
           style="fill:none;stroke:#000000;stroke-width:0.40000001;stroke-linecap:butt;stroke-linejoin:round;stroke-miterlimit:10;stroke-dasharray:none;stroke-opacity:1"
           d="m 240,640 c 0,8.837 -7.163,16 -16,16 -8.837,0 -16,-7.163 -16,-16 0,-8.837 7.163,-16 16,-16 8.837,0 16,7.163 16,16" />
      </g>
      <g
         id="g5582">
        <path
           inkscape:connector-curvature="0"
           id="path5584"
           style="fill:none;stroke:#000000;stroke-width:0.40000001;stroke-linecap:butt;stroke-linejoin:round;stroke-miterlimit:10;stroke-dasharray:none;stroke-opacity:1"
           d="m 224,688 0,-32" />
      </g>
      <g
         transform="translate(256,635.019)"
         id="g5586">
        <g
           transform="translate(0,-782.037)"
           id="g5588">
          <text
             id="text5590"
             style="font-variant:normal;font-weight:normal;font-size:14.34619999px;font-family:CMR12;-inkscape-font-specification:CMR12;writing-mode:lr-tb;fill:#000000;fill-opacity:1;fill-rule:nonzero;stroke:none"
             transform="matrix(1,0,0,-1,0,782.037)">
            <tspan
               id="tspan5592"
               sodipodi:role="line"
               y="0"
               x="0 9.5574389 16.581339 22.044371 27.507404 39.988598 50.326469 57.350368 62.8134 69.837303 75.300331 79.202499 86.226402">EarthRotation</tspan>
          </text>
        </g>
      </g>
      <g
         transform="translate(240,672)"
         id="g5594">
        <g
           transform="translate(0,-785.346)"
           id="g5596">
          <text
             id="text5598"
             style="font-variant:normal;font-weight:normal;font-size:9.96259975px;font-family:CMR10;-inkscape-font-specification:CMR10;writing-mode:lr-tb;fill:#000000;fill-opacity:1;fill-rule:nonzero;stroke:none"
             transform="matrix(1,0,0,-1,0,785.346)">
            <tspan
               id="tspan5600"
               sodipodi:role="line"
               y="0"
               x="0 3.9023504 8.8836508 12.758105 17.739405 21.613861 24.381472 29.36277">rotation</tspan>
          </text>
        </g>
      </g>
      <g
         id="g5602">
        <path
           inkscape:connector-curvature="0"
           id="path5604"
           style="fill:none;stroke:#000000;stroke-width:0.40000001;stroke-linecap:butt;stroke-linejoin:round;stroke-miterlimit:10;stroke-dasharray:none;stroke-opacity:1"
           d="m 240,576 c 0,8.837 -7.163,16 -16,16 -8.837,0 -16,-7.163 -16,-16 0,-8.837 7.163,-16 16,-16 8.837,0 16,7.163 16,16" />
      </g>
      <g
         id="g5606">
        <path
           inkscape:connector-curvature="0"
           id="path5608"
           style="fill:none;stroke:#000000;stroke-width:0.40000001;stroke-linecap:butt;stroke-linejoin:round;stroke-miterlimit:10;stroke-dasharray:none;stroke-opacity:1"
           d="m 224,624 0,-32" />
      </g>
      <g
         transform="translate(240,606.07)"
         id="g5610">
        <g
           transform="translate(0,-783.144)"
           id="g5612">
          <text
             id="text5614"
             style="font-variant:normal;font-weight:normal;font-size:9.96259975px;font-family:CMR10;-inkscape-font-specification:CMR10;writing-mode:lr-tb;fill:#000000;fill-opacity:1;fill-rule:nonzero;stroke:none"
             transform="matrix(1,0,0,-1,0,785.081)">
            <tspan
               id="tspan5616"
               sodipodi:role="line"
               y="0"
               x="0 5.5352206 13.834066 17.708521 21.610872 26.592173 32.127392 36.056641 38.824253 43.805553 47.680008 50.447617 55.428917 60.964138 67.049294 72.584518 80.893326 84.795677 89.77697 93.651428 98.632729 102.50719 105.2748 110.2561 115.79131 121.87647 130.1783 134.60568 140.1409 142.90851 148.44374 160.06311 163.99237 168.41974 173.40105 176.16866">notranslation,norotation,mediumscale</tspan>
          </text>
        </g>
      </g>
      <g
         transform="translate(256,571.019)"
         id="g5618">
        <g
           transform="translate(0,-782.037)"
           id="g5620">
          <text
             id="text5622"
             style="font-variant:normal;font-weight:normal;font-size:14.34619999px;font-family:CMR12;-inkscape-font-specification:CMR12;writing-mode:lr-tb;fill:#000000;fill-opacity:1;fill-rule:nonzero;stroke:none"
             transform="matrix(1,0,0,-1,0,782.037)">
            <tspan
               id="tspan5624"
               sodipodi:role="line"
               y="0"
               x="0 9.5574389 16.581339 22.044371 27.507404">Earth</tspan>
          </text>
        </g>
      </g>
      <g
         id="g5626">
        <path
           inkscape:connector-curvature="0"
           id="path5628"
           style="fill:none;stroke:#000000;stroke-width:0.40000001;stroke-linecap:butt;stroke-linejoin:round;stroke-miterlimit:10;stroke-dasharray:none;stroke-opacity:1"
           d="m 64,640 c 0,8.837 -7.1634,16 -16,16 -8.8366,0 -16,-7.163 -16,-16 0,-8.837 7.1634,-16 16,-16 8.8366,0 16,7.163 16,16" />
      </g>
      <g
         id="g5630">
        <path
           inkscape:connector-curvature="0"
           id="path5632"
           style="fill:none;stroke:#000000;stroke-width:0.40000001;stroke-linecap:butt;stroke-linejoin:round;stroke-miterlimit:10;stroke-dasharray:none;stroke-opacity:1"
           d="m 64,576 c 0,8.837 -7.1634,16 -16,16 -8.8366,0 -16,-7.163 -16,-16 0,-8.837 7.1634,-16 16,-16 8.8366,0 16,7.163 16,16" />
      </g>
      <g
         id="g5634">
        <path
           inkscape:connector-curvature="0"
           id="path5636"
           style="fill:none;stroke:#000000;stroke-width:0.40000001;stroke-linecap:butt;stroke-linejoin:round;stroke-miterlimit:10;stroke-dasharray:none;stroke-opacity:1"
           d="m 48,624 0,-32" />
      </g>
      <g
         id="g5638">
        <path
           inkscape:connector-curvature="0"
           id="path5640"
           style="fill:none;stroke:#000000;stroke-width:0.40000001;stroke-linecap:butt;stroke-linejoin:round;stroke-miterlimit:10;stroke-dasharray:none;stroke-opacity:1"
           d="m 64,512 c 0,8.837 -7.1634,16 -16,16 -8.8366,0 -16,-7.163 -16,-16 0,-8.837 7.1634,-16 16,-16 8.8366,0 16,7.163 16,16" />
      </g>
      <g
         id="g5642">
        <path
           inkscape:connector-curvature="0"
           id="path5644"
           style="fill:none;stroke:#000000;stroke-width:0.40000001;stroke-linecap:butt;stroke-linejoin:round;stroke-miterlimit:10;stroke-dasharray:none;stroke-opacity:1"
           d="m 48,560 0,-32" />
      </g>
      <g
         transform="translate(64,608)"
         id="g5646">
        <g
           transform="translate(0,-785.346)"
           id="g5648">
          <text
             id="text5650"
             style="font-variant:normal;font-weight:normal;font-size:9.96259975px;font-family:CMR10;-inkscape-font-specification:CMR10;writing-mode:lr-tb;fill:#000000;fill-opacity:1;fill-rule:nonzero;stroke:none"
             transform="matrix(1,0,0,-1,0,785.346)">
            <tspan
               id="tspan5652"
               sodipodi:role="line"
               y="0"
               x="0 3.9023504 8.8836508 12.758105 17.739405 21.613861 24.381472 29.36277">rotation</tspan>
          </text>
        </g>
      </g>
      <g
         transform="translate(80,571.098)"
         id="g5654">
        <g
           transform="translate(0,-782.197)"
           id="g5656">
          <text
             id="text5658"
             style="font-variant:normal;font-weight:normal;font-size:14.34619999px;font-family:CMR12;-inkscape-font-specification:CMR12;writing-mode:lr-tb;fill:#000000;fill-opacity:1;fill-rule:nonzero;stroke:none"
             transform="matrix(1,0,0,-1,0,782.197)">
            <tspan
               id="tspan5660"
               sodipodi:role="line"
               y="0"
               x="0 12.87141 20.282658 27.306557 39.802097 50.139969 57.149521 62.612556 69.636452 75.099487 79.001656 86.025551">MoonRotation</tspan>
          </text>
        </g>
      </g>
      <g
         transform="translate(64,542.07)"
         id="g5662">
        <g
           transform="translate(0,-783.144)"
           id="g5664">
          <text
             id="text5666"
             style="font-variant:normal;font-weight:normal;font-size:9.96259975px;font-family:CMR10;-inkscape-font-specification:CMR10;writing-mode:lr-tb;fill:#000000;fill-opacity:1;fill-rule:nonzero;stroke:none"
             transform="matrix(1,0,0,-1,0,785.081)">
            <tspan
               id="tspan5668"
               sodipodi:role="line"
               y="0"
               x="0 5.5352206 13.834066 17.708521 21.610872 26.592173 32.127392 36.056641 38.824253 43.805553 47.680008 50.447617 55.428917 60.964138 67.049294 72.584518 80.893326 84.795677 89.77697 93.651428 98.632729 102.50719 105.2748 110.2561 115.79131 121.87647 125.80572 134.10756 139.08885 141.85646 147.94162 151.87086 156.29825 161.27956 164.04716">notranslation,norotation,smallscale</tspan>
          </text>
        </g>
      </g>
      <g
         transform="translate(80,507.099)"
         id="g5670">
        <g
           transform="translate(0,-782.197)"
           id="g5672">
          <text
             id="text5674"
             style="font-variant:normal;font-weight:normal;font-size:14.34619999px;font-family:CMR12;-inkscape-font-specification:CMR12;writing-mode:lr-tb;fill:#000000;fill-opacity:1;fill-rule:nonzero;stroke:none"
             transform="matrix(1,0,0,-1,0,782.197)">
            <tspan
               id="tspan5676"
               sodipodi:role="line"
               y="0"
               x="0 12.87141 20.282658 27.306557">Moon</tspan>
          </text>
        </g>
      </g>
      <g
         transform="translate(80,635.019)"
         id="g5678">
        <g
           transform="translate(0,-782.037)"
           id="g5680">
          <text
             id="text5682"
             style="font-variant:normal;font-weight:normal;font-size:14.34619999px;font-family:CMR12;-inkscape-font-specification:CMR12;writing-mode:lr-tb;fill:#000000;fill-opacity:1;fill-rule:nonzero;stroke:none"
             transform="matrix(1,0,0,-1,0,782.037)">
            <tspan
               id="tspan5684"
               sodipodi:role="line"
               y="0"
               x="0 12.87141 20.282658 27.306557 39.802097 50.139969 56.383434 63.395859 70.419754 74.321922 82.126259 87.589287 91.491455 98.515358">MoonRevolution</tspan>
          </text>
        </g>
      </g>
      <g
         id="g5686">
        <path
           inkscape:connector-curvature="0"
           id="path5688"
           style="fill:none;stroke:#000000;stroke-width:0.40000001;stroke-linecap:butt;stroke-linejoin:round;stroke-miterlimit:10;stroke-dasharray:none;stroke-opacity:1"
           d="M 208,704 C 96,704 48,704 48,656" />
      </g>
      <g
         id="g5690">
        <path
           inkscape:connector-curvature="0"
           id="path5692"
           style="fill:none;stroke:#000000;stroke-width:0.40000001;stroke-linecap:butt;stroke-linejoin:round;stroke-miterlimit:10;stroke-dasharray:4;stroke-dashoffset:0;stroke-opacity:1"
           d="m 212.686,651.314 c -68.686,20.686 -153.3723,0 -153.3723,0" />
      </g>
      <g
         transform="translate(80,672)"
         id="g5694">
        <g
           transform="translate(0,-785.081)"
           id="g5696">
          <text
             id="text5698"
             style="font-variant:normal;font-weight:normal;font-size:9.96259975px;font-family:CMR10;-inkscape-font-specification:CMR10;writing-mode:lr-tb;fill:#000000;fill-opacity:1;fill-rule:nonzero;stroke:none"
             transform="matrix(1,0,0,-1,0,785.081)">
            <tspan
               id="tspan5700"
               sodipodi:role="line"
               y="0"
               x="0 7.1910048 12.726225 21.035034 26.570253 31.551554 38.743557 43.724854 47.599312 51.473766 56.455067 60.603493 69.466225 73.340675 81.639519 85.54187 90.52317 94.397629 99.378929 103.25338 106.021 111.0023 119.85506">!donotattachtorotation!</tspan>
          </text>
        </g>
      </g>
      <g
         transform="translate(32,729.05)"
         id="g5702">
        <g
           transform="translate(0,-773.126)"
           id="g5704">
          <text
             id="text5706"
             style="font-variant:normal;font-weight:normal;font-size:9.96259975px;font-family:CMR10;-inkscape-font-specification:CMR10;writing-mode:lr-tb;fill:#000000;fill-opacity:1;fill-rule:nonzero;stroke:none"
             transform="matrix(1,0,0,-1,0,785.081)">
            <tspan
               id="tspan5708"
               sodipodi:role="line"
               y="0"
               x="0 3.8744552 7.7768054 12.758105 18.293325 22.222576 24.990187 29.971485 33.84594 36.613552 41.594852 47.130074 56.592548 61.571857 65.999237 70.426613 74.301071 79.282372 83.184723 90.68457 94.559021 100.09425 105.07554 113.40328 120.32928 129.20995 133.11229 138.0936">translation:vector,thatwero-</tspan>
            <tspan
               id="tspan5710"
               sodipodi:role="line"
               y="11.955"
               x="0 3.8744552 8.8557549 12.73021 20.475136 25.456436 29.358786 34.340084 39.875305 45.410526 54.273254 58.147713 63.68293 71.427856 74.195465 79.455719 83.883102 88.864403 94.949554 99.376938 103.80431 109.06059 112.93504 117.36242">tatearoundthelocalcenter</tspan>
          </text>
        </g>
      </g>
    </g>
  </g>
</svg>
