<?xml version="1.0" encoding="UTF-8" standalone="no"?>
<!-- Created with Inkscape (http://www.inkscape.org/) -->

<svg
   xmlns:dc="http://purl.org/dc/elements/1.1/"
   xmlns:cc="http://creativecommons.org/ns#"
   xmlns:rdf="http://www.w3.org/1999/02/22-rdf-syntax-ns#"
   xmlns:svg="http://www.w3.org/2000/svg"
   xmlns="http://www.w3.org/2000/svg"
   xmlns:sodipodi="http://sodipodi.sourceforge.net/DTD/sodipodi-0.dtd"
   xmlns:inkscape="http://www.inkscape.org/namespaces/inkscape"
   width="96.222374mm"
   height="90.452225mm"
   viewBox="0 0 340.94542 320.50001"
   id="svg2"
   version="1.1"
   inkscape:version="0.91 r13725"
   sodipodi:docname="solarSystem.svg">
  <defs
     id="defs4" />
  <sodipodi:namedview
     id="base"
     pagecolor="#ffffff"
     bordercolor="#666666"
     borderopacity="1.0"
     inkscape:pageopacity="0.0"
     inkscape:pageshadow="2"
     inkscape:zoom="5.6"
     inkscape:cx="280.34432"
     inkscape:cy="184.15746"
     inkscape:document-units="px"
     inkscape:current-layer="g3400"
     showgrid="false"
     fit-margin-top="0"
     fit-margin-left="0"
     fit-margin-right="0"
     fit-margin-bottom="0"
     inkscape:window-width="3440"
     inkscape:window-height="1377"
     inkscape:window-x="-8"
     inkscape:window-y="-8"
     inkscape:window-maximized="1" />
  <metadata
     id="metadata7">
    <rdf:RDF>
      <cc:Work
         rdf:about="">
        <dc:format>image/svg+xml</dc:format>
        <dc:type
           rdf:resource="http://purl.org/dc/dcmitype/StillImage" />
        <dc:title></dc:title>
      </cc:Work>
    </rdf:RDF>
  </metadata>
  <g
     inkscape:label="Layer 1"
     inkscape:groupmode="layer"
     id="layer1"
     transform="translate(-972.38443,-823.5408)">
    <g
       transform="matrix(1.25,0,0,-1.25,752.63443,1623.7908)"
       inkscape:label="solar system"
       id="g3344">
      <g
         id="g3346">
        <path
           inkscape:connector-curvature="0"
           id="path3348"
           style="fill:#ffffe0;fill-opacity:1;fill-rule:evenodd;stroke:none"
           d="m 312,512 c 0,4.418 -3.582,8 -8,8 -4.418,0 -8,-3.582 -8,-8 0,-4.418 3.582,-8 8,-8 4.418,0 8,3.582 8,8" />
      </g>
      <g
         id="g3350">
        <path
           inkscape:connector-curvature="0"
           id="path3352"
           style="fill:none;stroke:#000000;stroke-width:0.40000001;stroke-linecap:butt;stroke-linejoin:round;stroke-miterlimit:10;stroke-dasharray:1, 3;stroke-dashoffset:0;stroke-opacity:1"
           d="m 344,512 c 0,22.091 -17.909,40 -40,40 -22.091,0 -40,-17.909 -40,-40 0,-22.091 17.909,-40 40,-40 22.091,0 40,17.909 40,40" />
      </g>
      <g
         id="g3354">
        <path
           inkscape:connector-curvature="0"
           id="path3356"
           style="fill:none;stroke:#000000;stroke-width:0.40000001;stroke-linecap:butt;stroke-linejoin:round;stroke-miterlimit:10;stroke-dasharray:1, 3;stroke-dashoffset:0;stroke-opacity:1"
           d="m 352,512 c 0,4.418 -3.582,8 -8,8 -4.418,0 -8,-3.582 -8,-8 0,-4.418 3.582,-8 8,-8 4.418,0 8,3.582 8,8" />
      </g>
      <g
         id="g3358">
        <path
           inkscape:connector-curvature="0"
           id="path3360"
           style="fill:#add8e6;fill-opacity:1;fill-rule:evenodd;stroke:#000000;stroke-width:0.40000001;stroke-linecap:butt;stroke-linejoin:round;stroke-miterlimit:10;stroke-dasharray:none;stroke-opacity:1"
           d="m 348,512 c 0,2.209 -1.791,4 -4,4 -2.209,0 -4,-1.791 -4,-4 0,-2.209 1.791,-4 4,-4 2.209,0 4,1.791 4,4" />
      </g>
      <g
         id="g3362">
        <path
           inkscape:connector-curvature="0"
           id="path3364"
           style="fill:#a9a9a9;fill-opacity:1;fill-rule:evenodd;stroke:#000000;stroke-width:0.40000001;stroke-linecap:butt;stroke-linejoin:round;stroke-miterlimit:10;stroke-dasharray:none;stroke-opacity:1"
           d="m 353.121,512 c 0,0.619 -0.502,1.121 -1.121,1.121 -0.619,0 -1.121,-0.502 -1.121,-1.121 0,-0.619 0.502,-1.121 1.121,-1.121 0.619,0 1.121,0.502 1.121,1.121" />
      </g>
      <g
         id="g3366">
        <path
           inkscape:connector-curvature="0"
           id="path3368"
           style="fill:none;stroke:#000000;stroke-width:0.40000001;stroke-linecap:butt;stroke-linejoin:round;stroke-miterlimit:10;stroke-dasharray:1, 3;stroke-dashoffset:0;stroke-opacity:1"
           d="m 432,512 c 0,70.692 -57.308,128 -128,128 -70.692,0 -128,-57.308 -128,-128 0,-70.692 57.308,-128 128,-128 70.692,0 128,57.308 128,128" />
      </g>
      <g
         id="g3370">
        <path
           inkscape:connector-curvature="0"
           id="path3372"
           style="fill:#ff8c00;fill-opacity:1;fill-rule:evenodd;stroke:#000000;stroke-width:0.40000001;stroke-linecap:butt;stroke-linejoin:round;stroke-miterlimit:10;stroke-dasharray:none;stroke-opacity:1"
           d="m 439.761,513.94 c -1.071,4.287 -5.415,6.893 -9.701,5.821 -4.287,-1.071 -6.893,-5.415 -5.821,-9.701 1.071,-4.287 5.415,-6.893 9.701,-5.821 4.287,1.071 6.893,5.415 5.821,9.701" />
      </g>
      <g
         id="g3374">
        <path
           inkscape:connector-curvature="0"
           id="path3376"
           style="fill:none;stroke:#d3d3d3;stroke-width:2;stroke-linecap:butt;stroke-linejoin:round;stroke-miterlimit:10;stroke-dasharray:none;stroke-opacity:1"
           d="m 447.522,515.881 c -0.536,2.143 -7.919,2.143 -16.492,0 -8.573,-2.144 -15.088,-5.618 -14.552,-7.762 0.536,-2.143 7.919,-2.143 16.492,0 8.573,2.144 15.088,5.618 14.552,7.762" />
      </g>
      <g
         id="g3378">
        <path
           inkscape:connector-curvature="0"
           id="path3380"
           style="fill:#ff8c00;fill-opacity:1;fill-rule:evenodd;stroke:#000000;stroke-width:0.40000001;stroke-linecap:butt;stroke-linejoin:round;stroke-miterlimit:10;stroke-dasharray:none;stroke-opacity:1"
           d="m 439.761,513.94 c -1.071,4.287 -5.415,6.893 -9.701,5.821 -4.287,-1.071 -6.893,-5.415 -5.821,-9.701" />
      </g>
      <g
         id="g3382">
        <path
           inkscape:connector-curvature="0"
           id="path3384"
           style="fill:#ff8c00;fill-opacity:1;fill-rule:evenodd;stroke:#000000;stroke-width:0.40000001;stroke-linecap:butt;stroke-linejoin:round;stroke-miterlimit:10;stroke-dasharray:none;stroke-opacity:1"
           d="m 431.03,515.881 1.94,-7.762" />
      </g>
      <g
         id="g3386">
        <path
           inkscape:connector-curvature="0"
           id="path3388"
           style="fill:#ff8c00;fill-opacity:1;fill-rule:evenodd;stroke:#000000;stroke-width:0.40000001;stroke-linecap:butt;stroke-linejoin:round;stroke-miterlimit:10;stroke-dasharray:none;stroke-opacity:1"
           d="m 342.211,515.578 3.578,-7.156" />
      </g>
      <g
         transform="translate(235.2,532)"
         id="g3390">
        <g
           transform="translate(0,-785.081)"
           id="g3392">
          <text
             id="text3394"
             style="font-style:normal;font-variant:normal;font-weight:normal;font-stretch:normal;font-size:9.96259975px;line-height:125%;font-family:CMR10;-inkscape-font-specification:'CMR10, Normal';text-align:start;writing-mode:lr-tb;text-anchor:start;fill:#000000;fill-opacity:1;fill-rule:nonzero;stroke:none"
             transform="matrix(1,0,0,-1,0,785.081)"
             sodipodi:linespacing="125%">
            <tspan
               sodipodi:role="line"
               id="tspan3437"
               x="0"
               y="0">Tilt does not affect Revolution of children</tspan>
          </text>
        </g>
      </g>
      <g
         transform="translate(244,480)"
         id="g3398">
        <g
           transform="translate(0,-785.081)"
           id="g3400">
          <text
             id="text3402"
             style="font-style:normal;font-variant:normal;font-weight:normal;font-stretch:normal;font-size:9.96259975px;line-height:125%;font-family:CMR10;-inkscape-font-specification:'CMR10, Normal';text-align:start;writing-mode:lr-tb;text-anchor:start;fill:#000000;fill-opacity:1;fill-rule:nonzero;stroke:none"
             transform="scale(1,-1)"
             sodipodi:linespacing="125%"
             x="-35.200001"
             y="-785.08099">
            <tspan
               sodipodi:role="line"
               id="tspan3439"
               x="-35.200001"
               y="-785.08099">Rotation does not affect Revolution of children</tspan>
          </text>
        </g>
      </g>
    </g>
  </g>
</svg>
